<svg xmlns="http://www.w3.org/2000/svg" width="300" height="300" fill-rule="evenodd" clip-rule="evenodd" stroke-linecap="round" stroke-linejoin="round" stroke-miterlimit="1.41421"><g opacity=".15" stroke-width=".13" stroke="#000"><path d="M299.932 90.6537l.006 40.6363-37.804-3.587 37.798-37.0493z" fill-opacity=".321569"/><path d="M263.759 70.9096l-1.595 56.9294-62.297-25.763 63.892-31.1664z" fill-opacity=".380392"/><path d="M262.134 127.839l19.88 97.513-55.526-62.945 35.646-34.568zM70.4934 46.8335l49.5306-5.8531-37.1724 65.2146-12.3582-59.3615z" fill-opacity=".580392"/><path d="M70.3448 46.7922l12.5068 59.4028-39.7643-40.2909 27.2575-19.1119z" fill-opacity=".552941"/><path d="M120.074 41.248l79.762 60.828-61.9-4.4575-17.862-56.3705z" fill-opacity=".564706"/><path d="M82.8516 106.195l55.0844-8.5765-60.0765 46.9935 4.9921-38.417z" fill-opacity=".321569"/><path d="M137.945 97.6003l8.376 42.8867-46.6348 33.039 38.2588-75.9257z" fill-opacity=".286275"/><path d="M199.867 102.076l-49.102 80.477-51.0788-9.027 100.1808-71.45z" fill-opacity=".290196"/><path d="M99.6862 173.526l29.6028 91.763-76.3836-18.497 46.7808-73.266z" fill-opacity=".533333"/><path d="M204.051 184.12l77.963 41.232-116.72 18.074 38.757-59.306z" fill-opacity=".298039"/><path d="M214.914 7.0219L233.32 85.799l-29.994-44.8431 11.588-33.934z" fill-opacity=".619608"/><path d="M203.326 41.248l-3.48 60.828-79.772-61.1201 83.252.2921z" fill-opacity=".337255"/><path d="M.00591448 58.7789L42.959 66.0586l-7.0137 44.5964L.00591448 58.7789z" fill-opacity=".639216"/><path d="M120.074 40.832l-49.609 5.8709L98.534.061435h19.626L120.074 40.832" fill-opacity=".52549"/><path d="M98.534.061435L70.348 46.6177 63.8118.0637794 98.534.061435z" fill-opacity=".305882"/><path d="M63.8118.061435L70.2093 46.5676 45.8119.061435h17.9999z" fill-opacity=".490196"/><path d="M.0674738 21.2063L0 .061435h45.8119L70.0811 46.6182.0674738 21.2063z" fill-opacity=".321569"/><path d="M118.16.061435h22.737L120.206 40.8375 118.16.061435z" fill-opacity=".32549"/><path d="M140.897.061435h48.452L203.326 41.248l-83.252-.2921L140.897.061435z" fill-opacity=".470588"/><path d="M200.205.061435l3.121 40.894465L189.349.061435h10.856z" fill-opacity=".376471"/><path d="M217.034.0652446L203.326 41.248 200.205.061435l16.829.0038096z" fill-opacity=".560784"/><path d="M217.034.061435h10.461l8.289 2.853715-20.87 4.10675 2.12-6.960465z" fill-opacity=".313726"/><path d="M299.933.061435l.003 24.556265L227.495.0645761 299.933.061435z" fill-opacity=".4"/><path d="M299.932 24.7531v15.0804L235.797 2.88321l64.135 21.86989z" fill-opacity=".254902"/><path d="M235.797 2.88321l64.152 37.11939-.013 21.404-64.139-58.52339z" fill-opacity=".396078"/><path d="M.0674738 38.6901L42.9844 65.9282.0674738 58.7789V38.6901z" fill-opacity=".576471"/><path d="M235.797 2.88321l27.976 68.03019L233.32 85.799l2.477-82.91579z" fill-opacity=".529412"/><path d="M120.165 40.9559l17.771 56.6359-55.0844 8.6032 37.3134-65.2391z" fill-opacity=".501961"/><path d="M235.797 2.88321L233.296 85.799 214.914 7.0219l20.883-4.13869z" fill-opacity=".470588"/><path d="M43.1033 66.0895l39.7483 40.1055-46.7786 4.519 7.0303-44.6245z" fill-opacity=".368627"/><path d="M203.326 41.248l29.994 44.551-33.453 16.277 3.459-60.828z" fill-opacity=".545098"/><path d="M.0674738 38.6901V21.2063L70.1164 46.7902 43.0206 65.7876.0674738 38.6901z" fill-opacity=".615686"/><path d="M.0674738 58.7789L35.8685 110.774.0674738 133.298V58.7789z" fill-opacity=".329412"/><path d="M36.137 110.846l46.7146-4.651-52.8869 43.396 6.1723-38.745z" fill-opacity=".517647"/><path d="M.0674738 133.298L35.9997 110.852l-6.1716 38.766-29.7606262 1.065v-17.385z" fill-opacity=".588235"/><path d="M.0674738 150.683l29.7488262-.941L.0674738 197.168v-46.485z" fill-opacity=".607843"/><path d="M.0687504 245.059L28.2799 270.401l-28.2124262 9 .0012766-34.342z" fill-opacity=".580392"/><path d="M47.8753 299.937l-19.4612-29.462 24.2585-23.357 9.6276 52.819H47.8753z" fill-opacity=".513726"/><path d="M52.6288 246.855L.0635155 231.511l.0039583-34.343L29.9782 149.717l22.6506 97.138z" fill-opacity=".501961"/><path d="M.0674738 231.563L52.6172 246.988l-24.2291 23.327L.0674738 245.059v-13.496z" fill-opacity=".356863"/><path d="M299.944 280.897l-.006 19.04H241.3l58.644-19.04z" fill-opacity=".552941"/><path d="M299.938 240.742l-.002 40.02L241.068 300l40.946-74.648 17.924 15.39z" fill-opacity=".466667"/><path d="M299.948 196.221l-.01 44.532-17.924-15.446 17.934-29.086z" fill-opacity=".552941"/><path d="M165.294 243.426l25.011 56.511h-49.351l24.34-56.511z" fill-opacity=".501961"/><path d="M199.867 102.076l4.184 82.044-53.267-1.567 49.083-80.477z" fill-opacity=".447059"/><path d="M204.051 184.12l-38.757 59.306-14.51-60.873 53.267 1.567z" fill-opacity=".560784"/><path d="M150.725 182.544l14.569 60.882-65.6078-69.9 51.0388 9.018z" fill-opacity=".388235"/><path d="M299.938 131.29v22.264l-32.752-.871 32.752-21.393z" fill-opacity=".380392"/><path d="M282.014 225.352l-40.9 74.624-75.82-56.55 116.72-18.074z" fill-opacity=".552941"/><path d="M165.294 243.426l75.774 56.511h-50.763l-25.011-56.511z" fill-opacity=".501961"/><path d="M113.318 274.065l3.297 25.872H98.7995l14.5185-25.872z" fill-opacity=".592157"/><path d="M99.6862 173.526l65.6078 69.9-35.893 21.698-29.7148-91.598z" fill-opacity=".458824"/><path d="M226.437 162.407l55.577 62.945-77.963-41.232 22.386-21.713z" fill-opacity=".494118"/><path d="M82.8516 106.195l-4.9605 38.25-47.7226 5.154 52.6831-43.404z" fill-opacity=".4"/><path d="M30.1011 149.684l69.5851 24.179-46.9293 72.949-22.6558-97.128z" fill-opacity=".580392"/><path d="M30.4939 149.688l47.2581-5.076 21.9365 29.098-69.1946-24.022" fill-opacity=".305882"/><path d="M137.936 97.6185L99.7888 173.526l-21.9293-28.914 60.0765-46.9935z" fill-opacity=".494118"/><path d="M137.936 97.6185l61.931 4.4575-53.57 38.411-8.361-42.8685z" fill-opacity=".521569"/><path d="M299.938 196.221l-17.924 29.131-14.809-72.669 32.733.874v42.664z" fill-opacity=".568627"/><path d="M263.786 70.9402L235.797 2.88321l64.135 58.52339.006 27.2-36.152-17.6664" fill-opacity=".545098"/><path d="M62.3002 299.937l-9.5187-52.924L113.2 274.017l-14.4005 25.92H62.3002z" fill-opacity=".333333"/><path d="M129.167 265.397l-15.848 8.523-60.4608-27.009 76.3088 18.486z" fill-opacity=".52549"/><path d="M165.294 243.426l-24.258 56.511h-24.421l-3.162-25.843 51.841-30.668z" fill-opacity=".54902"/><path d="M199.867 102.076l62.297 25.763-58.113 56.281-4.184-82.044z" fill-opacity=".278431"/><path d="M262.164 127.839l37.774 3.451-32.741 21.393-5.033-24.844z" fill-opacity=".556863"/><path d="M300 88.6066l-.062 2.0471-37.774 37.1853 1.617-56.9294L300 88.6066" fill-opacity=".486275"/><path d="M47.8753 299.937H.0635155l.0039583-20.536L28.2971 270.535l19.5782 29.402z" fill-opacity=".462745"/></g></svg>