<svg baseProfile="tiny" xmlns="http://www.w3.org/2000/svg" width="120" height="120"><path shape-rendering="optimizeSpeed" fill="#fff" d="M0 0h120v120H0z"/><path shape-rendering="optimizeSpeed" fill="#333" d="M10 10h4v4h-4zm4 0h4v4h-4zm4 0h4v4h-4zm4 0h4v4h-4zm4 0h4v4h-4zm4 0h4v4h-4zm4 0h4v4h-4zm8 0h4v4h-4zm8 0h4v4h-4zm8 0h4v4h-4zm4 0h4v4h-4zm12 0h4v4h-4zm8 0h4v4h-4zm4 0h4v4h-4zm4 0h4v4h-4zm4 0h4v4h-4zm4 0h4v4h-4zm4 0h4v4h-4zm4 0h4v4h-4zm-96 4h4v4h-4zm24 0h4v4h-4zm12 0h4v4h-4zm4 0h4v4h-4zm4 0h4v4h-4zm4 0h4v4h-4zm8 0h4v4h-4zm16 0h4v4h-4zm24 0h4v4h-4zm-96 4h4v4h-4zm8 0h4v4h-4zm4 0h4v4h-4zm4 0h4v4h-4zm8 0h4v4h-4zm8 0h4v4h-4zm4 0h4v4h-4zm4 0h4v4h-4zm12 0h4v4h-4zm4 0h4v4h-4zm16 0h4v4h-4zm8 0h4v4h-4zm4 0h4v4h-4zm4 0h4v4h-4zm8 0h4v4h-4zm-96 4h4v4h-4zm8 0h4v4h-4zm4 0h4v4h-4zm4 0h4v4h-4zm8 0h4v4h-4zm8 0h4v4h-4zm4 0h4v4h-4zm4 0h4v4h-4zm8 0h4v4h-4zm4 0h4v4h-4zm8 0h4v4h-4zm4 0h4v4h-4zm8 0h4v4h-4zm8 0h4v4h-4zm4 0h4v4h-4zm4 0h4v4h-4zm8 0h4v4h-4zm-96 4h4v4h-4zm8 0h4v4h-4zm4 0h4v4h-4zm4 0h4v4h-4zm8 0h4v4h-4zm8 0h4v4h-4zm12 0h4v4h-4zm4 0h4v4h-4zm4 0h4v4h-4zm4 0h4v4h-4zm4 0h4v4h-4zm4 0h4v4h-4zm8 0h4v4h-4zm8 0h4v4h-4zm4 0h4v4h-4zm4 0h4v4h-4zm8 0h4v4h-4zm-96 4h4v4h-4zm24 0h4v4h-4zm16 0h4v4h-4zm4 0h4v4h-4zm12 0h4v4h-4zm8 0h4v4h-4zm8 0h4v4h-4zm24 0h4v4h-4zm-96 4h4v4h-4zm4 0h4v4h-4zm4 0h4v4h-4zm4 0h4v4h-4zm4 0h4v4h-4zm4 0h4v4h-4zm4 0h4v4h-4zm8 0h4v4h-4zm8 0h4v4h-4zm8 0h4v4h-4zm8 0h4v4h-4zm8 0h4v4h-4zm8 0h4v4h-4zm4 0h4v4h-4zm4 0h4v4h-4zm4 0h4v4h-4zm4 0h4v4h-4zm4 0h4v4h-4zm4 0h4v4h-4zm-56 4h4v4h-4zm8 0h4v4h-4zm8 0h4v4h-4zm8 0h4v4h-4zm-64 4h4v4h-4zm4 0h4v4h-4zm4 0h4v4h-4zm4 0h4v4h-4zm12 0h4v4h-4zm8 0h4v4h-4zm8 0h4v4h-4zm4 0h4v4h-4zm4 0h4v4h-4zm8 0h4v4h-4zm12 0h4v4h-4zm12 0h4v4h-4zm4 0h4v4h-4zm4 0h4v4h-4zm8 0h4v4h-4zm-96 4h4v4h-4zm4 0h4v4h-4zm8 0h4v4h-4zm4 0h4v4h-4zm4 0h4v4h-4zm8 0h4v4h-4zm4 0h4v4h-4zm8 0h4v4h-4zm8 0h4v4h-4zm4 0h4v4h-4zm12 0h4v4h-4zm12 0h4v4h-4zm16 0h4v4h-4zm-92 4h4v4h-4zm12 0h4v4h-4zm8 0h4v4h-4zm4 0h4v4h-4zm4 0h4v4h-4zm4 0h4v4h-4zm4 0h4v4h-4zm4 0h4v4h-4zm4 0h4v4h-4zm4 0h4v4h-4zm8 0h4v4h-4zm8 0h4v4h-4zm4 0h4v4h-4zm4 0h4v4h-4zm8 0h4v4h-4zm-76 4h4v4h-4zm4 0h4v4h-4zm4 0h4v4h-4zm4 0h4v4h-4zm4 0h4v4h-4zm8 0h4v4h-4zm8 0h4v4h-4zm4 0h4v4h-4zm12 0h4v4h-4zm4 0h4v4h-4zm12 0h4v4h-4zm8 0h4v4h-4zm8 0h4v4h-4zm4 0h4v4h-4zm-80 4h4v4h-4zm4 0h4v4h-4zm4 0h4v4h-4zm8 0h4v4h-4zm12 0h4v4h-4zm4 0h4v4h-4zm8 0h4v4h-4zm4 0h4v4h-4zm4 0h4v4h-4zm4 0h4v4h-4zm8 0h4v4h-4zm4 0h4v4h-4zm4 0h4v4h-4zm4 0h4v4h-4zm8 0h4v4h-4zm4 0h4v4h-4zm4 0h4v4h-4zm-92 4h4v4h-4zm8 0h4v4h-4zm20 0h4v4h-4zm4 0h4v4h-4zm8 0h4v4h-4zm4 0h4v4h-4zm4 0h4v4h-4zm4 0h4v4h-4zm4 0h4v4h-4zm4 0h4v4h-4zm4 0h4v4h-4zm4 0h4v4h-4zm4 0h4v4h-4zm4 0h4v4h-4zm16 0h4v4h-4zm-92 4h4v4h-4zm4 0h4v4h-4zm4 0h4v4h-4zm8 0h4v4h-4zm4 0h4v4h-4zm16 0h4v4h-4zm4 0h4v4h-4zm12 0h4v4h-4zm24 0h4v4h-4zm8 0h4v4h-4zm4 0h4v4h-4zm-92 4h4v4h-4zm16 0h4v4h-4zm12 0h4v4h-4zm16 0h4v4h-4zm12 0h4v4h-4zm4 0h4v4h-4zm8 0h4v4h-4zm8 0h4v4h-4zm4 0h4v4h-4zm16 0h4v4h-4zm-84 4h4v4h-4zm8 0h4v4h-4zm4 0h4v4h-4zm4 0h4v4h-4zm8 0h4v4h-4zm4 0h4v4h-4zm8 0h4v4h-4zm8 0h4v4h-4zm4 0h4v4h-4zm4 0h4v4h-4zm4 0h4v4h-4zm4 0h4v4h-4zm4 0h4v4h-4zm4 0h4v4h-4zm4 0h4v4h-4zm4 0h4v4h-4zm4 0h4v4h-4zm4 0h4v4h-4zm-64 4h4v4h-4zm8 0h4v4h-4zm24 0h4v4h-4zm16 0h4v4h-4zm8 0h4v4h-4zm8 0h4v4h-4zm-96 4h4v4h-4zm4 0h4v4h-4zm4 0h4v4h-4zm4 0h4v4h-4zm4 0h4v4h-4zm4 0h4v4h-4zm4 0h4v4h-4zm12 0h4v4h-4zm4 0h4v4h-4zm12 0h4v4h-4zm4 0h4v4h-4zm8 0h4v4h-4zm8 0h4v4h-4zm8 0h4v4h-4zm8 0h4v4h-4zm4 0h4v4h-4zm4 0h4v4h-4zm-96 4h4v4h-4zm24 0h4v4h-4zm12 0h4v4h-4zm4 0h4v4h-4zm4 0h4v4h-4zm8 0h4v4h-4zm4 0h4v4h-4zm4 0h4v4h-4zm4 0h4v4h-4zm16 0h4v4h-4zm-80 4h4v4h-4zm8 0h4v4h-4zm4 0h4v4h-4zm4 0h4v4h-4zm8 0h4v4h-4zm16 0h4v4h-4zm12 0h4v4h-4zm4 0h4v4h-4zm8 0h4v4h-4zm4 0h4v4h-4zm4 0h4v4h-4zm4 0h4v4h-4zm4 0h4v4h-4zm4 0h4v4h-4zm8 0h4v4h-4zm-92 4h4v4h-4zm8 0h4v4h-4zm4 0h4v4h-4zm4 0h4v4h-4zm8 0h4v4h-4zm8 0h4v4h-4zm4 0h4v4h-4zm24 0h4v4h-4zm8 0h4v4h-4zm4 0h4v4h-4zm8 0h4v4h-4zm4 0h4v4h-4zm4 0h4v4h-4zm4 0h4v4h-4zm4 0h4v4h-4zm-96 4h4v4h-4zm8 0h4v4h-4zm4 0h4v4h-4zm4 0h4v4h-4zm8 0h4v4h-4zm8 0h4v4h-4zm8 0h4v4h-4zm16 0h4v4h-4zm8 0h4v4h-4zm4 0h4v4h-4zm4 0h4v4h-4zm8 0h4v4h-4zm8 0h4v4h-4zm4 0h4v4h-4zm-92 4h4v4h-4zm24 0h4v4h-4zm8 0h4v4h-4zm4 0h4v4h-4zm8 0h4v4h-4zm4 0h4v4h-4zm4 0h4v4h-4zm4 0h4v4h-4zm24 0h4v4h-4zm8 0h4v4h-4zm-88 4h4v4h-4zm4 0h4v4h-4zm4 0h4v4h-4zm4 0h4v4h-4zm4 0h4v4h-4zm4 0h4v4h-4zm4 0h4v4h-4zm8 0h4v4h-4zm4 0h4v4h-4zm8 0h4v4h-4zm24 0h4v4h-4zm8 0h4v4h-4zm4 0h4v4h-4zm4 0h4v4h-4zm4 0h4v4h-4zm4 0h4v4h-4zm4 0h4v4h-4z"/></svg>
