<?xml version="1.0" standalone="no"?>
<!DOCTYPE svg PUBLIC "-//W3C//DTD SVG 1.1//EN" "http://www.w3.org/Graphics/SVG/1.1/DTD/svg11.dtd">
<svg width="300px" height="300px" version="1.1" xmlns="http://www.w3.org/2000/svg" xmlns:xlink="http://www.w3.org/1999/xlink" xml:space="preserve" style="fill-rule:evenodd;clip-rule:evenodd;stroke-linecap:round;stroke-linejoin:round;stroke-miterlimit:1.41421;">
    <g>
        <g>
            <path d="M299.932,90.6537L299.938,131.29L262.134,127.703L299.932,90.6537Z" style="fill:black;fill-opacity:0.321569;stroke-width:0.13px;stroke:black;"/>
            <path d="M263.759,70.9096L262.164,127.839L199.867,102.076L263.759,70.9096Z" style="fill:black;fill-opacity:0.380392;stroke-width:0.13px;stroke:black;"/>
            <path d="M262.134,127.839L282.014,225.352L226.488,162.407L262.134,127.839Z" style="fill:black;fill-opacity:0.580392;stroke-width:0.13px;stroke:black;"/>
            <path d="M70.4934,46.8335L120.024,40.9804L82.8516,106.195L70.4934,46.8335Z" style="fill:black;fill-opacity:0.580392;stroke-width:0.13px;stroke:black;"/>
            <path d="M70.3448,46.7922L82.8516,106.195L43.0873,65.9041L70.3448,46.7922Z" style="fill:black;fill-opacity:0.552941;stroke-width:0.13px;stroke:black;"/>
            <path d="M120.074,41.248L199.836,102.076L137.936,97.6185L120.074,41.248Z" style="fill:black;fill-opacity:0.564706;stroke-width:0.13px;stroke:black;"/>
            <path d="M82.8516,106.195L137.936,97.6185L77.8595,144.612L82.8516,106.195Z" style="fill:black;fill-opacity:0.321569;stroke-width:0.13px;stroke:black;"/>
            <path d="M137.945,97.6003L146.321,140.487L99.6862,173.526L137.945,97.6003Z" style="fill:black;fill-opacity:0.286275;stroke-width:0.13px;stroke:black;"/>
            <path d="M199.867,102.076L150.765,182.553L99.6862,173.526L199.867,102.076Z" style="fill:black;fill-opacity:0.290196;stroke-width:0.13px;stroke:black;"/>
            <path d="M99.6862,173.526L129.289,265.289L52.9054,246.792L99.6862,173.526Z" style="fill:black;fill-opacity:0.533333;stroke-width:0.13px;stroke:black;"/>
            <path d="M204.051,184.12L282.014,225.352L165.294,243.426L204.051,184.12Z" style="fill:black;fill-opacity:0.298039;stroke-width:0.13px;stroke:black;"/>
            <path d="M214.914,7.0219L233.32,85.799L203.326,40.9559L214.914,7.0219Z" style="fill:black;fill-opacity:0.619608;stroke-width:0.13px;stroke:black;"/>
            <g>
                <path d="M203.326,41.248L199.846,102.076L120.074,40.9559L203.326,41.248Z" style="fill:black;fill-opacity:0.337255;stroke-width:0.13px;stroke:black;"/>
            </g>
            <path d="M0.00591448,58.7789L42.959,66.0586L35.9453,110.655L0.00591448,58.7789Z" style="fill:black;fill-opacity:0.639216;stroke-width:0.13px;stroke:black;"/>
            <path d="M120.074,40.832L70.465,46.7029L98.534,0.061435L118.16,0.061435L120.074,40.832" style="fill:black;fill-opacity:0.52549;stroke-width:0.13px;stroke:black;"/>
            <g>
                <path d="M98.534,0.061435L70.348,46.6177L63.8118,0.0637794L98.534,0.061435Z" style="fill:black;fill-opacity:0.305882;stroke-width:0.13px;stroke:black;"/>
            </g>
            <path d="M63.8118,0.061435L70.2093,46.5676L45.8119,0.061435L63.8118,0.061435Z" style="fill:black;fill-opacity:0.490196;stroke-width:0.13px;stroke:black;"/>
            <path d="M0.0674738,21.2063L0,0.061435L45.8119,0.061435L70.0811,46.6182L0.0674738,21.2063Z" style="fill:black;fill-opacity:0.321569;stroke-width:0.13px;stroke:black;"/>
            <path d="M118.16,0.061435L140.897,0.061435L120.206,40.8375L118.16,0.061435Z" style="fill:black;fill-opacity:0.32549;stroke-width:0.13px;stroke:black;"/>
            <path d="M140.897,0.061435L189.349,0.061435L203.326,41.248L120.074,40.9559L140.897,0.061435Z" style="fill:black;fill-opacity:0.470588;stroke-width:0.13px;stroke:black;"/>
            <path d="M200.205,0.061435L203.326,40.9559L189.349,0.061435L200.205,0.061435Z" style="fill:black;fill-opacity:0.376471;stroke-width:0.13px;stroke:black;"/>
            <path d="M217.034,0.0652446L203.326,41.248L200.205,0.061435L217.034,0.0652446Z" style="fill:black;fill-opacity:0.560784;stroke-width:0.13px;stroke:black;"/>
            <path d="M217.034,0.061435L227.495,0.061435L235.784,2.91515L214.914,7.0219L217.034,0.061435Z" style="fill:black;fill-opacity:0.313726;stroke-width:0.13px;stroke:black;"/>
            <path d="M299.933,0.061435L299.936,24.6177L227.495,0.0645761L299.933,0.061435Z" style="fill:black;fill-opacity:0.4;stroke-width:0.13px;stroke:black;"/>
            <path d="M299.932,24.7531L299.932,39.8335L235.797,2.88321L299.932,24.7531Z" style="fill:black;fill-opacity:0.254902;stroke-width:0.13px;stroke:black;"/>
            <path d="M235.797,2.88321L299.949,40.0026L299.936,61.4066L235.797,2.88321Z" style="fill:black;fill-opacity:0.396078;stroke-width:0.13px;stroke:black;"/>
            <path d="M0.0674738,38.6901L42.9844,65.9282L0.0674738,58.7789L0.0674738,38.6901Z" style="fill:black;fill-opacity:0.576471;stroke-width:0.13px;stroke:black;"/>
            <path d="M235.797,2.88321L263.773,70.9134L233.32,85.799L235.797,2.88321Z" style="fill:black;fill-opacity:0.529412;stroke-width:0.13px;stroke:black;"/>
            <path d="M120.165,40.9559L137.936,97.5918L82.8516,106.195L120.165,40.9559Z" style="fill:black;fill-opacity:0.501961;stroke-width:0.13px;stroke:black;"/>
            <path d="M235.797,2.88321L233.296,85.799L214.914,7.0219L235.797,2.88321Z" style="fill:black;fill-opacity:0.470588;stroke-width:0.13px;stroke:black;"/>
            <path d="M43.1033,66.0895L82.8516,106.195L36.073,110.714L43.1033,66.0895Z" style="fill:black;fill-opacity:0.368627;stroke-width:0.13px;stroke:black;"/>
            <path d="M203.326,41.248L233.32,85.799L199.867,102.076L203.326,41.248Z" style="fill:black;fill-opacity:0.545098;stroke-width:0.13px;stroke:black;"/>
            <path d="M0.0674738,38.6901L0.0674738,21.2063L70.1164,46.7902L43.0206,65.7876L0.0674738,38.6901Z" style="fill:black;fill-opacity:0.615686;stroke-width:0.13px;stroke:black;"/>
            <path d="M0.0674738,58.7789L35.8685,110.774L0.0674738,133.298L0.0674738,58.7789Z" style="fill:black;fill-opacity:0.329412;stroke-width:0.13px;stroke:black;"/>
            <path d="M36.137,110.846L82.8516,106.195L29.9647,149.591L36.137,110.846Z" style="fill:black;fill-opacity:0.517647;stroke-width:0.13px;stroke:black;"/>
            <path d="M0.0674738,133.298L35.9997,110.852L29.8281,149.618L0.0674738,150.683L0.0674738,133.298Z" style="fill:black;fill-opacity:0.588235;stroke-width:0.13px;stroke:black;"/>
            <path d="M0.0674738,150.683L29.8163,149.742L0.0674738,197.168L0.0674738,150.683Z" style="fill:black;fill-opacity:0.607843;stroke-width:0.13px;stroke:black;"/>
            <g>
                <path d="M0.0687504,245.059L28.2799,270.401L0.0674738,279.401L0.0687504,245.059Z" style="fill:black;fill-opacity:0.580392;stroke-width:0.13px;stroke:black;"/>
            </g>
            <path d="M47.8753,299.937L28.4141,270.475L52.6726,247.118L62.3002,299.937L47.8753,299.937Z" style="fill:black;fill-opacity:0.513726;stroke-width:0.13px;stroke:black;"/>
            <path d="M52.6288,246.855L0.0635155,231.511L0.0674738,197.168L29.9782,149.717L52.6288,246.855Z" style="fill:black;fill-opacity:0.501961;stroke-width:0.13px;stroke:black;"/>
            <path d="M0.0674738,231.563L52.6172,246.988L28.3881,270.315L0.0674738,245.059L0.0674738,231.563Z" style="fill:black;fill-opacity:0.356863;stroke-width:0.13px;stroke:black;"/>
            <path d="M299.944,280.897L299.938,299.937L241.3,299.937L299.944,280.897Z" style="fill:black;fill-opacity:0.552941;stroke-width:0.13px;stroke:black;"/>
            <path d="M299.938,240.742L299.936,280.762L241.068,300L282.014,225.352L299.938,240.742Z" style="fill:black;fill-opacity:0.466667;stroke-width:0.13px;stroke:black;"/>
            <path d="M299.948,196.221L299.938,240.753L282.014,225.307L299.948,196.221Z" style="fill:black;fill-opacity:0.552941;stroke-width:0.13px;stroke:black;"/>
            <path d="M165.294,243.426L190.305,299.937L140.954,299.937L165.294,243.426Z" style="fill:black;fill-opacity:0.501961;stroke-width:0.13px;stroke:black;"/>
            <path d="M199.867,102.076L204.051,184.12L150.784,182.553L199.867,102.076Z" style="fill:black;fill-opacity:0.447059;stroke-width:0.13px;stroke:black;"/>
            <path d="M204.051,184.12L165.294,243.426L150.784,182.553L204.051,184.12Z" style="fill:black;fill-opacity:0.560784;stroke-width:0.13px;stroke:black;"/>
            <path d="M150.725,182.544L165.294,243.426L99.6862,173.526L150.725,182.544Z" style="fill:black;fill-opacity:0.388235;stroke-width:0.13px;stroke:black;"/>
            <path d="M299.938,131.29L299.938,153.554L267.186,152.683L299.938,131.29Z" style="fill:black;fill-opacity:0.380392;stroke-width:0.13px;stroke:black;"/>
            <path d="M282.014,225.352L241.114,299.976L165.294,243.426L282.014,225.352Z" style="fill:black;fill-opacity:0.552941;stroke-width:0.13px;stroke:black;"/>
            <path d="M165.294,243.426L241.068,299.937L190.305,299.937L165.294,243.426Z" style="fill:black;fill-opacity:0.501961;stroke-width:0.13px;stroke:black;"/>
            <path d="M113.318,274.065L116.615,299.937L98.7995,299.937L113.318,274.065Z" style="fill:black;fill-opacity:0.592157;stroke-width:0.13px;stroke:black;"/>
            <path d="M99.6862,173.526L165.294,243.426L129.401,265.124L99.6862,173.526Z" style="fill:black;fill-opacity:0.458824;stroke-width:0.13px;stroke:black;"/>
            <path d="M226.437,162.407L282.014,225.352L204.051,184.12L226.437,162.407Z" style="fill:black;fill-opacity:0.494118;stroke-width:0.13px;stroke:black;"/>
            <path d="M82.8516,106.195L77.8911,144.445L30.1685,149.599L82.8516,106.195Z" style="fill:black;fill-opacity:0.4;stroke-width:0.13px;stroke:black;"/>
            <path d="M30.1011,149.684L99.6862,173.863L52.7569,246.812L30.1011,149.684Z" style="fill:black;fill-opacity:0.580392;stroke-width:0.13px;stroke:black;"/>
            <path d="M30.4939,149.688L77.752,144.612L99.6885,173.71L30.4939,149.688" style="fill:black;fill-opacity:0.305882;stroke-width:0.13px;stroke:black;"/>
            <path d="M137.936,97.6185L99.7888,173.526L77.8595,144.612L137.936,97.6185Z" style="fill:black;fill-opacity:0.494118;stroke-width:0.13px;stroke:black;"/>
            <path d="M137.936,97.6185L199.867,102.076L146.297,140.487L137.936,97.6185Z" style="fill:black;fill-opacity:0.521569;stroke-width:0.13px;stroke:black;"/>
            <path d="M299.938,196.221L282.014,225.352L267.205,152.683L299.938,153.557L299.938,196.221Z" style="fill:black;fill-opacity:0.568627;stroke-width:0.13px;stroke:black;"/>
            <path d="M263.786,70.9402L235.797,2.88321L299.932,61.4066L299.938,88.6066L263.786,70.9402" style="fill:black;fill-opacity:0.545098;stroke-width:0.13px;stroke:black;"/>
            <path d="M62.3002,299.937L52.7815,247.013L113.2,274.017L98.7995,299.937L62.3002,299.937Z" style="fill:black;fill-opacity:0.333333;stroke-width:0.13px;stroke:black;"/>
            <path d="M129.167,265.397L113.319,273.92L52.8582,246.911L129.167,265.397Z" style="fill:black;fill-opacity:0.52549;stroke-width:0.13px;stroke:black;"/>
            <path d="M165.294,243.426L141.036,299.937L116.615,299.937L113.453,274.094L165.294,243.426Z" style="fill:black;fill-opacity:0.54902;stroke-width:0.13px;stroke:black;"/>
            <path d="M199.867,102.076L262.164,127.839L204.051,184.12L199.867,102.076Z" style="fill:black;fill-opacity:0.278431;stroke-width:0.13px;stroke:black;"/>
            <g>
                <path d="M262.164,127.839L299.938,131.29L267.197,152.683L262.164,127.839Z" style="fill:black;fill-opacity:0.556863;stroke-width:0.13px;stroke:black;"/>
            </g>
            <path d="M300,88.6066L299.938,90.6537L262.164,127.839L263.781,70.9096L300,88.6066" style="fill:black;fill-opacity:0.486275;stroke-width:0.13px;stroke:black;"/>
            <path d="M47.8753,299.937L0.0635155,299.937L0.0674738,279.401L28.2971,270.535L47.8753,299.937Z" style="fill:black;fill-opacity:0.462745;stroke-width:0.13px;stroke:black;"/>
        </g>
    </g>
</svg>
